<svg width="40" height="40" viewBox="0 0 40 40" fill="none" xmlns="http://www.w3.org/2000/svg">
<circle cx="20" cy="20" r="20" fill="url(#paint0_radial)"/>
<g clip-path="url(#clip0)">
<path d="M20 8.12496C16.775 8.12496 16.3706 8.13863 15.104 8.19642C13.84 8.25407 12.9768 8.45483 12.2214 8.74836C11.4405 9.05183 10.7783 9.45788 10.1181 10.118C9.45793 10.7782 9.05189 11.4405 8.74842 12.2214C8.45487 12.9767 8.25413 13.84 8.19644 15.1039C8.13866 16.3705 8.125 16.7749 8.125 20C8.125 23.225 8.13866 23.6294 8.19644 24.896C8.25413 26.16 8.45487 27.0232 8.74842 27.7786C9.05189 28.5595 9.45793 29.2217 10.1181 29.8819C10.7783 30.5421 11.4405 30.9481 12.2214 31.2516C12.9768 31.5451 13.84 31.7459 15.104 31.8035C16.3706 31.8613 16.775 31.875 20 31.875C23.2251 31.875 23.6295 31.8613 24.8961 31.8035C26.16 31.7459 27.0233 31.5451 27.7786 31.2516C28.5595 30.9481 29.2217 30.5421 29.882 29.8819C30.5421 29.2217 30.9482 28.5595 31.2516 27.7786C31.5452 27.0232 31.7459 26.16 31.8036 24.896C31.8614 23.6294 31.875 23.225 31.875 20C31.875 16.7749 31.8614 16.3705 31.8036 15.1039C31.7459 13.84 31.5452 12.9767 31.2516 12.2214C30.9482 11.4405 30.5421 10.7782 29.882 10.118C29.2217 9.45788 28.5595 9.05183 27.7786 8.74836C27.0233 8.45483 26.16 8.25407 24.8961 8.19642C23.6295 8.13863 23.2251 8.12496 20 8.12496ZM20 10.2646C23.1708 10.2646 23.5464 10.2767 24.7985 10.3338C25.9564 10.3866 26.5851 10.5801 27.0036 10.7427C27.5579 10.9581 27.9534 11.2155 28.369 11.631C28.7845 12.0466 29.0419 12.4421 29.2573 12.9964C29.4199 13.4149 29.6134 14.0436 29.6662 15.2015C29.7233 16.4536 29.7354 16.8292 29.7354 20C29.7354 23.1707 29.7233 23.5463 29.6662 24.7985C29.6134 25.9563 29.4199 26.5851 29.2573 27.0035C29.0419 27.5578 28.7845 27.9534 28.369 28.3689C27.9534 28.7845 27.5579 29.0418 27.0036 29.2572C26.5851 29.4199 25.9564 29.6133 24.7985 29.6661C23.5466 29.7232 23.171 29.7354 20 29.7354C16.829 29.7354 16.4535 29.7232 15.2015 29.6661C14.0437 29.6133 13.4149 29.4199 12.9965 29.2572C12.4422 29.0418 12.0466 28.7845 11.6311 28.3689C11.2155 27.9534 10.9582 27.5578 10.7428 27.0035C10.5801 26.5851 10.3867 25.9563 10.3339 24.7985C10.2767 23.5463 10.2646 23.1707 10.2646 20C10.2646 16.8292 10.2767 16.4536 10.3339 15.2015C10.3867 14.0436 10.5801 13.4149 10.7428 12.9964C10.9582 12.4421 11.2155 12.0466 11.6311 11.631C12.0466 11.2155 12.4422 10.9581 12.9965 10.7427C13.4149 10.5801 14.0437 10.3866 15.2015 10.3338C16.4537 10.2767 16.8293 10.2646 20 10.2646Z" fill="white"/>
<path d="M20.0003 23.958C17.8142 23.958 16.042 22.1858 16.042 19.9997C16.042 17.8135 17.8142 16.0413 20.0003 16.0413C22.1865 16.0413 23.9587 17.8135 23.9587 19.9997C23.9587 22.1858 22.1865 23.958 20.0003 23.958V23.958ZM20.0003 13.9017C16.6325 13.9017 13.9023 16.6318 13.9023 19.9997C13.9023 23.3675 16.6325 26.0977 20.0003 26.0977C23.3682 26.0977 26.0983 23.3675 26.0983 19.9997C26.0983 16.6318 23.3682 13.9017 20.0003 13.9017Z" fill="white"/>
<path d="M27.7641 13.661C27.7641 14.448 27.1261 15.0859 26.339 15.0859C25.5521 15.0859 24.9141 14.448 24.9141 13.661C24.9141 12.8739 25.5521 12.2359 26.339 12.2359C27.1261 12.2359 27.7641 12.8739 27.7641 13.661" fill="white"/>
</g>
<defs>
<radialGradient id="paint0_radial" cx="0" cy="0" r="1" gradientUnits="userSpaceOnUse" gradientTransform="translate(10.6251 43.0808) rotate(-90) scale(39.643 36.8711)">
<stop stop-color="#FFDD55"/>
<stop offset="0.1" stop-color="#FFDD55"/>
<stop offset="0.5" stop-color="#FF543E"/>
<stop offset="1" stop-color="#C837AB"/>
</radialGradient>
<clipPath id="clip0">
<rect width="23.75" height="23.75" fill="white" transform="translate(8.125 8.125)"/>
</clipPath>
</defs>
</svg>
